#N canvas -8 -8 1920 1117 12;
#X obj 169 151 inlet;
#X obj 345 123 inlet;
#X obj 606 122 inlet;
#X obj 427 123 loadbang;
#X obj 427 154 f \$1;
#X obj 429 181 expr 60000/(8*$f1);
#X msg 606 146;
#X obj 431 236 metro;
#X obj 432 281 f;
#X obj 466 282 + 1;
#X obj 281 400 outlet;
#X obj 351 400 outlet;
#X obj 416 399 outlet;
#X obj 484 399 outlet;
#X obj 562 400 outlet;
#X obj 656 316 outlet;
#X obj 281 368 select 0;
#X obj 416 367 select 0;
#X obj 351 367 select 0;
#X obj 562 368 select 0;
#X obj 484 368 select 0;
#X obj 285 338 mod 32;
#X obj 359 332 mod 16;
#X obj 430 331 mod 8;
#X obj 487 328 mod 4;
#X obj 562 332 mod 2;
#X text 345 429 1/2 note;
#X text 272 427 1 note;
#X text 424 430 1/4 note;
#X text 496 432 1/8 note;
#X text 566 433 1/16 note;
#X text 649 343 1/32 note;
#X text 658 134 reset;
#X text 491 124 bpm;
#X connect 0 0 7 0;
#X connect 1 0 5 0;
#X connect 2 0 6 0;
#X connect 3 0 4 0;
#X connect 4 0 5 0;
#X connect 5 0 7 1;
#X connect 6 0 8 0;
#X connect 7 0 8 0;
#X connect 7 0 15 0;
#X connect 8 0 9 0;
#X connect 8 0 21 0;
#X connect 8 0 22 0;
#X connect 8 0 23 0;
#X connect 8 0 24 0;
#X connect 8 0 25 0;
#X connect 9 0 8 1;
#X connect 16 0 10 0;
#X connect 17 0 12 0;
#X connect 18 0 11 0;
#X connect 19 0 14 0;
#X connect 20 0 13 0;
#X connect 21 0 16 0;
#X connect 22 0 18 0;
#X connect 23 0 17 0;
#X connect 24 0 20 0;
#X connect 25 0 19 0;
