#N canvas -8 -8 1920 1117 12;
#X obj 370 100 inlet;
#X obj 361 380 outlet;
#X obj 370 135 f;
#X obj 410 135 + 1;
#X obj 478 149 inlet;
#X text 374 74 bang;
#X obj 370 178 mod \$1;
#X text 527 151 bars;
#X obj 368 208 + \$3;
#X obj 367 242 * \$2;
#X obj 365 271 % \$1;
#X obj 360 346 select 1;
#X obj 540 210 inlet;
#X obj 365 300 < \$2;
#X text 601 212 slag per bar;
#X obj 589 300 inlet;
#X text 635 300 rytme offset;
#X connect 0 0 2 0;
#X connect 2 0 3 0;
#X connect 2 0 6 0;
#X connect 3 0 2 1;
#X connect 4 0 6 1;
#X connect 6 0 8 0;
#X connect 8 0 9 0;
#X connect 9 0 10 0;
#X connect 10 0 13 0;
#X connect 11 0 1 0;
#X connect 12 0 9 1;
#X connect 12 0 13 1;
#X connect 13 0 11 0;
#X connect 15 0 8 1;
