#N canvas -8 -8 1920 1117 12;
#X obj 178 105 inlet;
#X obj 313 99 inlet;
#X obj 476 100 inlet;
#X obj 254 201 f;
#X obj 298 203 + 1;
#X obj 377 101 loadbang;
#X msg 476 131;
#X text 525 99 reset;
#X obj 377 131 f \$1;
#X obj 314 157 max 0;
#X obj 303 323 mod;
#X obj 292 370 select 0;
#X obj 256 410 outlet;
#X obj 339 412 outlet;
#X text 253 435 every;
#X text 344 434 other;
#X connect 0 0 3 0;
#X connect 1 0 9 0;
#X connect 2 0 6 0;
#X connect 3 0 4 0;
#X connect 3 0 10 0;
#X connect 4 0 3 1;
#X connect 5 0 8 0;
#X connect 6 0 3 0;
#X connect 8 0 9 0;
#X connect 9 0 10 1;
#X connect 10 0 11 0;
#X connect 11 0 12 0;
#X connect 11 1 13 0;
