#N canvas -8 -8 1920 1117 12;
#X obj 156 123 bng 30 250 50 0 empty empty empty 17 7 0 10 -258113
-1 -1;
#X obj 664 144 openpanel;
#N canvas 0 50 450 250 (subpatch) 0;
#X array channelL 382200 float 2;
#X coords 0 1 382200 -1 200 140 1 0 0;
#X restore 119 351 graph;
#N canvas 0 50 450 250 (subpatch) 0;
#X array channelR 382200 float 2;
#X coords 0 1 382200 -1 200 140 1 0 0;
#X restore 118 510 graph;
#X obj 664 196 soundfiler;
#X obj 664 277 expr 44100 / $f1;
#X obj 665 469 *~;
#X obj 667 638 *~;
#X obj 711 639 *~;
#X obj 743 243 s samplesize;
#X floatatom 691 304 5 0 0 0 - - -;
#X obj 951 201 metro 120;
#X obj 121 179 hsl 128 15 50 500 0 0 empty empty granular_rate -2 -8
0 10 -258113 -1 -1 0 1;
#X floatatom 951 253 5 0 0 0 - - -;
#X floatatom 951 304 5 0 0 0 - - -;
#X obj 121 258 hsl 128 15 0 1 0 0 empty empty empty -2 -8 0 10 -258113
-1 -1 2108 1;
#X obj 709 496 s~ progressbar;
#X obj 551 546 tabread4~ channelL;
#X obj 695 546 tabread4~ channelR;
#X obj 893 417 r~ progressbar;
#X obj 1018 444 metro 50;
#X obj 968 477 snapshot~;
#X floatatom 968 503 5 0 0 0 - - -;
#X obj 968 558 /;
#X obj 986 529 r samplesize;
#X floatatom 968 584 5 0 0 0 - - -;
#X obj 968 627 s progress;
#X obj 1017 604 hsl 128 15 0 1 0 0 empty empty empty -2 -8 0 10 -262144
-1 -1 0 1;
#X obj 1109 201 r jitbang;
#X obj 121 209 hsl 128 15 0.01 1 0 1 empty empty playhead_location
-2 -8 0 10 -258113 -1 -1 0 1;
#X floatatom 1189 236 5 0 0 0 - - -;
#X obj 1189 261 -;
#X floatatom 1189 287 5 0 0 0 - - -;
#X obj 1243 263 +;
#X obj 121 239 hsl 128 15 0 1 0 0 empty empty jit_range -2 -8 0 10
-258113 -1 -1 0 1;
#X obj 1281 257 bang;
#X obj 1315 257 s jitbang;
#X floatatom 1243 286 5 0 0 0 - - -;
#X msg 664 170 read -resize \$1 channelL channelR;
#X obj 293 167 vsl 30 150 0 1 0 0 empty empty Volum 0 -9 0 10 -258113
-1 -1 0 1;
#X obj 710 458 r samplesize;
#X floatatom 745 220 5 0 0 0 - - -;
#X obj 1017 103 r granrate;
#X obj 1334 195 r sspeed;
#X obj 1211 149 r playloc;
#X obj 667 414 phasor~;
#X obj 951 227 random 1000;
#X obj 951 278 / 1000;
#X obj 1156 362 clip, f 5;
#X obj 845 544 vline~;
#X msg 845 512 0 3 \, 1 3 5;
#X floatatom 1038 193 5 0 0 0 - - -;
#X obj 1050 223 - 5;
#X obj 1048 263 delay;
#X obj 1047 291 s smooth;
#X obj 844 479 r smooth;
#X obj 1018 416 loadbang;
#X msg 472 323 0;
#X msg 551 363 0;
#X obj 121 294 hsl 128 15 -0.114583 0.114583 0 0 empty speedy speed
-2 -8 0 10 -258113 -1 -1 0 1;
#X floatatom 467 486 15 0 0 0 - - -;
#X obj 467 139 r speed_control;
#X obj 537 172 * -1;
#X msg 537 292 set \$1;
#X msg 467 292 set \$1;
#X text 408 324 forwards;
#X text 478 360 backwards;
#X obj 482 209 pack f f;
#X msg 482 241 \; speedy range \$2 \$1;
#X text 150 275 speed (-1 to 1);
#X obj 947 142 loadbang;
#X obj 947 171 t b b;
#X obj 670 600 *~;
#X obj 714 600 *~;
#X obj 1103 239 r progress;
#X floatatom 1103 264 5 0 0 0 - - -;
#X text 114 104 Last inn Sample;
#X obj 1158 391 s granul;
#X obj 713 383 r granul;
#X obj 672 683 outlet~;
#X obj 667 116 inlet;
#X obj 407 648 cyclone/mousestate;
#X msg 404 618 poll;
#X msg 461 618 nopoll;
#X floatatom 433 679 5 0 0 0 - - -;
#X floatatom 479 679 5 0 0 0 - - -;
#X floatatom 389 680 5 0 0 0 - - -;
#X obj 631 709 cyclone/scale 0 1200 1 0;
#X obj 429 749 s granrate;
#X obj 636 752 s sspeed;
#X floatatom 527 681 5 0 0 0 - - -;
#X obj 716 756 s playloc;
#X obj 257 133 bng 15 250 50 0 empty empty empty 17 7 0 10 -258113
-1 -1;
#X obj 309 134 bng 15 250 50 0 empty empty empty 17 7 0 10 -258113
-1 -1;
#X obj 433 711 cyclone/scale 0 1920 50 500;
#X text 250 102 Mouse CTRL;
#X text 255 115 on;
#X text 301 117 off;
#X connect 0 0 1 0;
#X connect 1 0 38 0;
#X connect 4 0 5 0;
#X connect 4 0 41 0;
#X connect 5 0 10 0;
#X connect 5 0 45 0;
#X connect 6 0 16 0;
#X connect 6 0 17 0;
#X connect 6 0 18 0;
#X connect 7 0 79 0;
#X connect 8 0 79 0;
#X connect 11 0 46 0;
#X connect 11 0 53 0;
#X connect 12 0 11 1;
#X connect 12 0 51 0;
#X connect 13 0 47 0;
#X connect 14 0 15 0;
#X connect 14 0 48 0;
#X connect 17 0 72 0;
#X connect 18 0 73 0;
#X connect 19 0 21 0;
#X connect 20 0 21 0;
#X connect 21 0 22 0;
#X connect 22 0 23 0;
#X connect 23 0 25 0;
#X connect 24 0 23 1;
#X connect 25 0 26 0;
#X connect 25 0 27 0;
#X connect 28 0 30 0;
#X connect 29 0 30 0;
#X connect 30 0 31 0;
#X connect 30 0 33 0;
#X connect 31 0 32 0;
#X connect 32 0 48 1;
#X connect 33 0 37 0;
#X connect 34 0 35 0;
#X connect 34 0 33 1;
#X connect 34 0 31 1;
#X connect 35 0 36 0;
#X connect 37 0 48 2;
#X connect 38 0 4 0;
#X connect 39 0 7 1;
#X connect 39 0 8 1;
#X connect 40 0 6 1;
#X connect 41 0 9 0;
#X connect 42 0 12 0;
#X connect 43 0 34 0;
#X connect 44 0 29 0;
#X connect 45 0 6 0;
#X connect 46 0 13 0;
#X connect 47 0 14 0;
#X connect 48 0 77 0;
#X connect 49 0 73 1;
#X connect 49 0 72 1;
#X connect 50 0 49 0;
#X connect 51 0 52 0;
#X connect 52 0 53 1;
#X connect 53 0 54 0;
#X connect 55 0 50 0;
#X connect 56 0 20 0;
#X connect 57 0 59 0;
#X connect 58 0 59 0;
#X connect 59 0 60 0;
#X connect 60 0 45 0;
#X connect 61 0 62 0;
#X connect 61 0 64 0;
#X connect 61 0 67 0;
#X connect 62 0 63 0;
#X connect 62 0 67 1;
#X connect 63 0 58 0;
#X connect 64 0 57 0;
#X connect 67 0 68 0;
#X connect 70 0 71 0;
#X connect 71 0 11 0;
#X connect 71 1 12 0;
#X connect 72 0 7 0;
#X connect 73 0 8 0;
#X connect 74 0 75 0;
#X connect 78 0 45 1;
#X connect 80 0 1 0;
#X connect 81 0 86 0;
#X connect 81 1 84 0;
#X connect 81 2 85 0;
#X connect 81 4 90 0;
#X connect 82 0 81 0;
#X connect 83 0 81 0;
#X connect 84 0 94 0;
#X connect 85 0 87 0;
#X connect 87 0 89 0;
#X connect 87 0 91 0;
#X connect 92 0 82 0;
#X connect 93 0 83 0;
#X connect 94 0 88 0;
#X coords 0 -1 1 1 240 600 2 100 100;
